<svg xmlns="http://www.w3.org/2000/svg" width="512" height="512" viewBox="0 0 97.01 97.01"><path d="M71.865 46.842c8.133-3.628 12.611-10.272 12.611-18.709C84.477 9.991 73.076 0 52.378 0H11.623a2 2 0 0 0-2 2v93.01a2 2 0 0 0 2 2h40.756c23.557 0 35.008-9.339 35.008-28.549 0-5.509-3.794-18.042-15.522-21.619zM52.379 79.963h-24.74V55.02h24.74c8.171 0 16.854 4.435 16.854 12.652.001 8.49-8.463 12.291-16.854 12.291zm0-41.02h-24.74V16.631h24.74c12.938 0 13.941 9.122 13.941 11.918 0 4.84-1.584 10.394-13.941 10.394z" fill="#5d4484"/></svg>