<svg xmlns="http://www.w3.org/2000/svg" viewBox="0 0 54 54"><g fill="#43a047"><path d="M1 27C1 12.641 12.641 1 27 1s26 11.641 26 26-11.641 26-26 26S1 41.359 1 27z"/><path d="M27 54C12.112 54 0 41.888 0 27S12.112 0 27 0s27 12.112 27 27-12.112 27-27 27zm0-52C13.215 2 2 13.215 2 27s11.215 25 25 25 25-11.215 25-25S40.785 2 27 2z"/></g><path d="M27 34.999c-.438 0-.875-.167-1.209-.5L14.293 23.001a.999.999 0 1 1 1.414-1.414L27 32.88l11.293-11.293a.999.999 0 1 1 1.414 1.414L28.209 34.499c-.333.333-.771.5-1.209.5z" fill="#fff"/></svg>