<?xml version="1.0" encoding="utf-8"?>
<!-- Generator: Adobe Illustrator 23.0.1, SVG Export Plug-In . SVG Version: 6.00 Build 0)  -->
<svg version="1.1" id="Layer_1" xmlns="http://www.w3.org/2000/svg" xmlns:xlink="http://www.w3.org/1999/xlink" x="0px" y="0px"
	 viewBox="0 0 467.4 467.4" style="enable-background:new 0 0 467.4 467.4;" xml:space="preserve">
<style type="text/css">
	.st0{opacity:0.6;fill:#CEB319;}
	.st1{fill:#546E7A;}
	.st2{fill:#8CA3AA;}
	.st3{fill:#365A84;}
	.st4{fill:#448AFF;}
	.st5{fill:#C0CAD1;}
	.st6{fill:#ECEFF1;}
</style>
<line class="st0" x1="127.5" y1="284.9" x2="340.5" y2="284.9"/>
<path class="st1" d="M0,229.3c1.6,36,105.6,65,233.7,65s232-29,233.7-65c-32.6,14.2-124.9,24.5-233.7,24.5S32.6,243.5,0,229.3z"/>
<path class="st2" d="M374.9,175.9c0,0.1,0,0.1,0,0.2H92.5c0-0.1,0-0.1,0-0.2C36.3,188,0,207,0,228.4c0,0.3,0,0.6,0,0.9
	c32.6,14.2,124.9,24.5,233.7,24.5s201.1-10.3,233.7-24.5c0-0.3,0-0.6,0-0.9C467.4,207,431.1,188,374.9,175.9z"/>
<path class="st3" d="M374.9,175.9C374.7,98.1,311.6,35,233.7,35S92.7,98.1,92.5,175.9c0,0.1,0,0.1,0,0.2h282.3
	C374.9,176.1,374.9,176,374.9,175.9z"/>
<path class="st4" d="M233.7,58.8c55.5,0,101.2,42.6,106.1,96.9c0.1,0.7,0.1,1.3,0.2,2H127.4c0-0.7,0.1-1.3,0.2-2
	C132.5,101.5,178.2,58.8,233.7,58.8z"/>
<path class="st5" d="M443.4,246.5c-9.9,6.5-25.4,13.4-48,19.7c-43.2,12-100.6,18.7-161.7,18.7S115.2,278.2,72,266.2
	c-22.7-6.3-38.2-13.2-48-19.7l0,0c45.6,10.3,123.8,16.8,209.7,16.8S397.8,256.8,443.4,246.5L443.4,246.5z"/>
<path class="st6" d="M233.7,244.3c-96.6,0-185.4-8.5-222.8-21c4.8-9.2,22.3-21.6,60.1-32.3c6.8-1.9,14-3.7,21.5-5.3c0,0,0,0,0,0
	h282.3c0,0,0,0,0,0c7.5,1.6,14.7,3.4,21.5,5.3c37.8,10.6,55.3,23.1,60.1,32.3C419.2,235.8,330.3,244.3,233.7,244.3z"/>
<polygon class="st4" points="32,31.4 0.5,62.9 0.5,-0.1 63.5,-0.1 "/>
</svg>
