<svg id="github" xmlns="http://www.w3.org/2000/svg" viewBox="0 0 512 512">
<path d="M470.3,158.1c5.5-16.6,8.3-33.9,8.3-51.8c0-23.8-5.3-46.2-15.7-67.1c-22,0-41.3,4-58.2,12c-16.8,8-36,20.4-57.6,37.2
	c-27.1-6.6-55.9-9.8-86.2-9.8c-33.2,0-64.9,3.6-95.1,10.8c-22-17.3-41.4-29.9-58.2-38.1S71.3,39.2,49.2,39.2
	c-10.5,21-15.7,43.3-15.7,67.2c0,18.1,2.8,35.5,8.3,52.3C13.8,191.4-0.1,232-0.1,280.6c0,42.7,6.4,76.7,19.1,101.9
	c6.8,13.4,15.6,25.1,26.5,35.4s23.3,18.5,37.2,24.9c13.9,6.4,28,11.6,42.2,15.9c14.1,4.2,29.8,7.3,46.9,9.3
	c17.1,1.9,32.2,3.2,45.4,3.9c13.2,0.6,27.7,1,43.7,1c18.9,0,36-0.4,51.4-1.4c15.4-1,33-3.2,52.8-6.8c19.8-3.6,37.2-8.5,52.3-14.7
	s29.5-15,43.5-26.5c13.8-11.5,24.7-25.1,32.5-41c12.5-25.4,18.8-59.4,18.8-101.9C512.2,231.8,498.2,190.9,470.3,158.1z M433.4,382.1
	c-6.6,13.5-14.9,24-24.9,31.7c-10,7.7-22.5,13.8-37.5,18.4c-15,4.6-29.3,7.7-43.1,9.1c-13.8,1.4-29,2.2-45.8,2.2h-51.8
	c-16.8,0-32.1-0.8-45.8-2.2c-13.8-1.4-28.1-4.4-43.1-9.1c-15-4.6-27.5-10.8-37.5-18.4c-10-7.7-18.3-18.2-24.9-31.7
	c-6.7-13.5-9.9-29.2-9.9-47.3c0-24.6,7.1-45.6,21.2-62.8c14.1-17.3,33.3-25.9,57.6-25.9c8.8,0,28.8,2.2,60.1,6.5
	c14.6,2.3,30.7,3.3,48.3,3.3c17.7,0,33.8-1.1,48.3-3.3c31.6-4.3,51.7-6.5,60.1-6.5c24.3,0,43.5,8.6,57.6,25.9
	c14.1,17.3,21.2,38.2,21.2,62.8C443.2,352.9,440,368.6,433.4,382.1z" fill="currentColor"/>
<path d="M179.9,286.1c-6.3-7-13.7-10.5-22.3-10.5s-16.1,3.5-22.3,10.5c-6.3,7-10.7,14.8-13.3,23.4c-2.6,8.6-3.9,17-3.9,25.2
	s1.3,16.6,3.9,25.2c2.6,8.6,7,16.4,13.3,23.4c6.3,7,13.7,10.5,22.3,10.5s16.1-3.5,22.3-10.5c6.3-7,10.7-14.8,13.3-23.4
	s3.9-17,3.9-25.2s-1.3-16.6-3.9-25.2C190.5,300.9,186.1,293.1,179.9,286.1z" fill="currentColor"/>
<path d="M376.9,286.1c-6.3-7-13.7-10.5-22.3-10.5s-16.1,3.5-22.3,10.5c-6.3,7-10.7,14.8-13.3,23.4s-3.9,17-3.9,25.2
	s1.3,16.6,3.9,25.2s7,16.4,13.3,23.4c6.3,7,13.7,10.5,22.3,10.5s16.1-3.5,22.3-10.5c6.3-7,10.7-14.8,13.3-23.4s3.9-17,3.9-25.2
	s-1.3-16.6-3.9-25.2S383.1,293.1,376.9,286.1z" fill="currentColor"/>
</svg>
