<?xml version="1.0" encoding="utf-8"?>
<!-- Generator: Adobe Illustrator 23.0.1, SVG Export Plug-In . SVG Version: 6.00 Build 0)  -->
<svg version="1.1" id="Layer_1" xmlns="http://www.w3.org/2000/svg" xmlns:xlink="http://www.w3.org/1999/xlink" x="0px" y="0px"
	 viewBox="0 0 467.4 467.4" style="enable-background:new 0 0 467.4 467.4;" xml:space="preserve">
<style type="text/css">
	.st0{fill:#448AFF;}
	.st1{fill:#B0D3F0;}
	.st2{fill:#14A085;}
	.st3{fill:#8697CB;}
	.st4{fill:#556080;}
	.st5{fill:#81CCB8;}
	.st6{fill:#FFFFFF;}
	.st7{fill:#393F4A;}
	.st8{fill:#65DDB9;}
</style>
<polygon class="st0" points="32,31.4 0.5,62.9 0.5,-0.1 63.5,-0.1 "/>
<g>
	<path id="Shape" class="st1" d="M378.8,435.2c8.9,0,16.1,7.2,16.1,16.1c0,8.9-7.2,16.1-16.1,16.1H185.2c-8.9,0-16.1-7.2-16.1-16.1
		c0-8.9,7.2-16.1,16.1-16.1L282,411L378.8,435.2z"/>
	<path class="st2" d="M378.8,435.2c0,0-24.2-80.7-24.2-153.3c0-56.5,40.3-64.5,40.3-113V72.1c0-8.9-7.2-16.1-16.1-16.1H185.2
		c-8.9,0-16.1,7.2-16.1,16.1v96.8c0,48.4,40.3,56.5,40.3,113c0,72.6-24.2,153.3-24.2,153.3H378.8z"/>
	<path class="st1" d="M394.9,72.1v102.8c-1.4-0.7-2.6-1.6-3.8-2.6c-6.8-6.4-17.4-6.4-24.2,0c-6.8,6.3-17.4,6.3-24.2,0
		c-6.8-6.4-17.4-6.4-24.2,0c-6.8,6.3-17.4,6.3-24.2,0c-6.8-6.4-17.4-6.4-24.2,0c-6.8,6.3-17.4,6.3-24.2,0c-6.8-6.3-17.4-6.3-24.2,0
		c-6.9,6.2-17.3,6.2-24.2,0c-6.8-6.4-17.4-6.4-24.2,0c-1.2,1-2.4,1.9-3.8,2.6c0-4.1,0,2.6,0-102.8c0-8.9,7.2-16.1,16.1-16.1h193.2
		C387.7,56,394.9,63.2,394.9,72.1z"/>
	<path class="st3" d="M237.1,167.9c-5.6-1.2-11.5,0.4-15.7,4.4c-4.1,3.8-9.9,5.5-15.4,4.4L173.2,37.6c-0.3-1.2-1.2-2.2-2.4-2.7
		c-1.2-0.5-2.5-0.3-3.6,0.4L97.6,84.1c-3.7,2.6-8.4,3.6-12.9,2.6c-4.5-1-8.3-3.9-10.5-7.9c-3.8-7.7-1.2-17,6.1-21.6l75.5-52.9
		c8.7-5,19.1-5.7,28.4-1.9c9.2,3.8,16.2,11.7,18.8,21.3L237.1,167.9z"/>
	<path class="st4" d="M237.1,167.9c-5.6-1.2-11.5,0.4-15.7,4.4c-4.1,3.8-9.9,5.5-15.4,4.4L178,57.7c4.6-2.4,7.3-1.7,32.7-1.7
		L237.1,167.9z"/>
	<circle id="Oval" class="st5" cx="249.7" cy="225.4" r="16.1"/>
	<circle class="st6" cx="265.8" cy="370.6" r="32.3"/>
	<circle class="st7" cx="265.8" cy="370.6" r="8.1"/>
	<circle class="st5" cx="298.1" cy="281.9" r="24.2"/>
	<g>
		<circle class="st8" cx="330.4" cy="354.5" r="8.1"/>
		<circle class="st8" cx="330.4" cy="209.3" r="8.1"/>
		<circle class="st8" cx="241.6" cy="298" r="8.1"/>
		<circle class="st8" cx="322.3" cy="402.9" r="8.1"/>
	</g>
</g>
</svg>
