<?xml version="1.0" encoding="utf-8"?>
<!-- Generator: Adobe Illustrator 23.0.1, SVG Export Plug-In . SVG Version: 6.00 Build 0)  -->
<svg version="1.1" id="Layer_1" xmlns="http://www.w3.org/2000/svg" xmlns:xlink="http://www.w3.org/1999/xlink" x="0px" y="0px"
	 viewBox="0 0 467.4 467.4" style="enable-background:new 0 0 467.4 467.4;" xml:space="preserve">
<style type="text/css">
	.st0{opacity:0.9;fill:#CEB319;}
	.st1{fill:none;}
	.st2{fill:#546E7A;}
	.st3{fill:#365A84;}
	.st4{fill:#448AFF;}
	.st5{fill:#8CA3AA;}
	.st6{fill:#C0CAD1;}
	.st7{fill:#ECEFF1;}
	.st8{fill:#3F5C6C;}
	.st9{fill:#35495E;}
	.st10{fill:#2C3E50;}
	.st11{fill:#2F6EC9;}
	.st12{fill:#A1C7FF;}
	.st13{fill:#B0D3F0;}
	.st14{fill:#14A085;}
	.st15{fill:#8697CB;}
	.st16{fill:#556080;}
	.st17{fill:#81CCB8;}
	.st18{fill:#FFFFFF;}
	.st19{fill:#393F4A;}
	.st20{fill:#65DDB9;}
	.st21{fill:#3DB39E;}
	.st22{fill:#324D5B;}
</style>
<path class="st0" d="M417.2,247.8c-8.6,13-22.1,26.9-41.8,39.5c-37.6,24.1-87.7,37.7-141.1,38s-103.6-12.9-141.4-36.8
	C73,276,59.4,262.3,50.8,249.3l0,0c39.9,20.4,108.3,33.1,183.3,32.8C309.2,281.8,377.4,268.5,417.2,247.8L417.2,247.8z"/>
<line class="st1" x1="127.5" y1="284.9" x2="340.5" y2="284.9"/>
<path class="st2" d="M0,229.3c1.6,36,105.6,65,233.7,65s232-29,233.7-65c-32.6,14.2-124.9,24.5-233.7,24.5S32.6,243.5,0,229.3z"/>
<path class="st3" d="M374.9,175.9C374.7,98.1,311.6,35,233.7,35S92.7,98.1,92.5,175.9c0,0.1,0,0.1,0,0.2h282.3
	C374.9,176.1,374.9,176,374.9,175.9z"/>
<path class="st4" d="M233.7,58.8c55.5,0,101.2,42.6,106.1,96.9c0.1,0.7,0.1,1.3,0.2,2H127.4c0-0.7,0.1-1.3,0.2-2
	C132.5,101.5,178.2,58.8,233.7,58.8z"/>
<path class="st5" d="M374.9,175.9c0,0.1,0,0.1,0,0.2H92.5c0-0.1,0-0.1,0-0.2C36.3,188,0,207,0,228.4c0,0.3,0,0.6,0,0.9
	c32.6,14.2,124.9,24.5,233.7,24.5s201.1-10.3,233.7-24.5c0-0.3,0-0.6,0-0.9C467.4,207,431.1,188,374.9,175.9z"/>
<path class="st6" d="M443.4,246.5c-9.9,6.5-25.4,13.4-48,19.7c-43.2,12-100.6,18.7-161.7,18.7S115.2,278.2,72,266.2
	c-22.7-6.3-38.2-13.2-48-19.7l0,0c45.6,10.3,123.8,16.8,209.7,16.8S397.8,256.8,443.4,246.5L443.4,246.5z"/>
<path class="st7" d="M233.7,244.3c-96.6,0-185.4-8.5-222.8-21c4.8-9.2,22.3-21.6,60.1-32.3c6.8-1.9,14-3.7,21.5-5.3l0,0h282.3l0,0
	c7.5,1.6,14.7,3.4,21.5,5.3c37.8,10.6,55.3,23.1,60.1,32.3C419.2,235.8,330.3,244.3,233.7,244.3z"/>
<polygon class="st4" points="32,31.4 0.5,62.9 0.5,-0.1 63.5,-0.1 "/>
<path id="Shape_1_" class="st8" d="M-324.6,262.5c-2.5-5.5-0.3-12,5.1-14.7c5.4-2.7,11.9-0.6,14.8,4.7c8.6,15.1,22.6,26.5,39.1,31.9
	c1.7,0.5,3.4,0.1,4.8-1c1.3-1.1,2.1-2.7,2-4.5c0-0.4-1.7,0.2,78.1-13.4c0,1.3,0,2.8,0,4.6c4.8-1.5,10,0.3,12.8,4.5
	c7.9,10.5,19.5,17.6,32.3,20.1c5.3,0.7,9.5,5,10,10.4c0.3,3.4-1,6.8-3.5,9.1c-2.5,2.3-6,3.4-9.4,2.8c-14.1-2.3-27.2-8.7-37.7-18.4
	c3.2,11.9,9.1,23,17.1,32.4c12.2,13.5,19,31,19.1,49.2c0,4.3-1.8,8.4-5,11.2c-3.2,2.8-7.5,4.2-11.7,3.7c-7.6-1-13.3-7.5-13.2-15.2
	c-0.1-9.3-3.2-18.4-8.9-25.8l-14.9,6.8c3.4,8.5,5.2,17.6,5.2,26.8c0,4.3-1.8,8.4-5,11.2s-7.5,4.2-11.7,3.7
	c-7.5-0.9-13.1-7.3-13-14.9c-0.1-10.9-4.2-21.4-11.6-29.4c-12.1-14.1-20.5-30.8-24.7-48.9c-29.7-3.2-55.9-20.7-70.3-46.8
	L-324.6,262.5z"/>
<path class="st9" d="M-203.1,365.3c-2.1,0-3.7-1.7-3.7-3.7c0-2.1,1.7-3.7,3.7-3.7c22.3,0,25.8-11.5,26-12.1c0.5-2,2.5-3.2,4.5-2.7
	c1,0.2,1.9,0.8,2.4,1.7c0.5,0.9,0.7,1.9,0.4,2.9c-0.3,0.7-4.8,17.7-33.5,17.7L-203.1,365.3z"/>
<path class="st9" d="M-195.8,343.1c-1,0-2-0.4-2.7-1.2c-0.7-0.8-1-1.8-1-2.8c1.7-17.4-4.9-34.6-18-46.3c-1.5-1.4-1.6-3.7-0.3-5.2
	c0.7-0.7,1.6-1.2,2.6-1.2c1,0,2,0.3,2.7,1c14.8,13.2,22.3,32.7,20.3,52.5C-192.3,341.6-193.9,343.1-195.8,343.1L-195.8,343.1z"/>
<path class="st9" d="M-229.3,328.2c0-2.1,1.7-3.7,3.7-3.7c27.4,0,38.1-9.9,38.3-10.1c1.5-1.4,3.8-1.4,5.2,0c0.7,0.7,1.1,1.6,1.1,2.6
	c0,1-0.4,1.9-1.1,2.6c-0.5,0.5-12.6,12.2-43.5,12.2C-227.6,331.9-229.3,330.2-229.3,328.2z"/>
<path class="st9" d="M-155.6,286.5c3.9,2.7,8.2,4.9,12.6,6.4c-3.3,6.8-5.1,14.2-5.3,21.7c-4.7-1.4-9.2-3.4-13.5-5.7
	C-161,301.1-158.9,293.5-155.6,286.5z"/>
<path class="st9" d="M-296.4,264.6c3.4,3.8,7.3,7.3,11.4,10.3c-3.3,6.8-8.4,12.5-14.9,16.5c-4.4-3.3-8.4-7.1-12.1-11.2
	C-305.7,276.3-300.4,270.9-296.4,264.6z"/>
<path class="st9" d="M-218.1,384c9.4-4.4,20.3-4.4,29.7,0c0,1.2,0,2.5,0,3.7c0,4.3-1.8,8.4-5,11.2c-3.2,2.8-7.5,4.2-11.7,3.7
	c-7.5-0.9-13.1-7.3-13-14.9C-218.1,383.5-218.6,384-218.1,384z"/>
<path class="st9" d="M-169.7,376.5c9.4-4.3,20.3-4.3,29.7,0c0,1.2,0,2.5,0,3.7c0,4.3-1.8,8.4-5,11.2c-3.2,2.8-7.5,4.2-11.7,3.7
	c-7.5-1.1-13.1-7.6-13-15.2c0-1.1-0.1-2.3-0.2-3.4H-169.7z"/>
<path class="st9" d="M-258.8,279c0-0.4-1.7,0.2,78.1-13.4c0,1.3,0,2.8,0,4.6c0.5-0.2,1.1-0.3,1.6-0.4c-7.4,14.7-21.4,25.1-37.7,27.8
	c-16.3,2.8-32.9-2.3-44.8-13.8C-259.8,282.9-258.7,281-258.8,279z"/>
<path class="st10" d="M-277.6,239c0,28.7,23.3,52.1,52.1,52.1s52.1-23.3,52.1-52.1s-23.3-52.1-52.1-52.1S-277.6,210.2-277.6,239z"/>
<path class="st4" d="M-173.5,239c0,18.4-9.8,35.5-25.7,44.9s-35.6,9.6-51.7,0.6c-6.8-15.5-9.6-32.4-8.1-49.2c0,0,0.4-0.7,1.1-2
	c5.1-8.8,28.2-42.4,77.4-20.5C-175.9,220.6-173.5,229.7-173.5,239z"/>
<path class="st11" d="M-174.3,248.1c-3,16.5-13.7,30.6-28.9,37.8c-15.2,7.2-32.9,6.6-47.6-1.6c-6.8-15.5-9.6-32.4-8.1-49.2
	c0,0,0.4-0.7,1.1-2C-240.5,253.8-212.8,270.7-174.3,248.1L-174.3,248.1z"/>
<path class="st12" d="M-225.6,279.8c-2.1,0-3.7-1.7-3.7-3.7s1.7-3.7,3.7-3.7c13.3,0,25.3-7.9,30.6-20c0.9-1.8,3-2.5,4.8-1.7
	c1.8,0.8,2.7,2.9,2,4.7C-194.6,270.2-209.3,279.8-225.6,279.8L-225.6,279.8z"/>
<circle id="Oval" class="st12" cx="-188.4" cy="239" r="3.7"/>
<path class="st9" d="M445.6,227c0,47.5,0.6,46.9-1.6,51.4c-1.8,3.8-4.9,6.6-8.9,8s-8.2,1.2-11.9-0.7c-5.4-2.6-8.9-8.1-8.9-14.1v8.5
	c0.1,7.5-5.1,14.1-12.4,15.7c-4.6,1-9.4-0.1-13.1-3.1s-5.8-7.4-5.8-12.2v-29.1c0.1-2.1-1.4-4-3.4-4.5c-22.7-5.6-20.7-5.1-21.7-5.5
	c-6.3-2.2-10.5-8.1-10.7-14.7v-48.9l70.5-5l23.8,43.5C444.2,219.5,445.6,223.2,445.6,227z"/>
<path class="st10" d="M423.2,229.3v56.6c-5.5-2.6-8.9-8.1-8.9-14.1c0-47.1,0.6-44.7-1.7-48.3c-0.8-2,0-4.3,1.9-5.4
	c1.9-1.1,4.3-0.7,5.7,1C422.1,222,423.2,225.6,423.2,229.3L423.2,229.3z"/>
<path class="st8" d="M349.2,164.1c-1.7,2.9-1.7,4.2-3,12.1c-2.9,17.4,5.9,34.7,21.7,42.6c29.1,14.5,28.8,14.9,33,14.9
	c4.8,0,9.3-2.6,11.7-6.8c2.4-4.2,2.3-9.4-0.2-13.5c-2.7-4.5-6-5.3-17.1-10.9l-15.3-7.6c-3.8-1.9-6.5-5.5-7.2-9.7L349.2,164.1z"/>
<path class="st8" d="M409.8,185.7c10.6,23.5,1.3,26.8,5.5,36.1C420.9,234,449,235.2,441,194c-1.5-7.7-4.2-18.7-10.4-24.1
	L409.8,185.7z"/>
<path class="st10" d="M342.7,139.8c0,27.2,22,49.2,49.2,49.2c27.2,0,49.2-22,49.2-49.2s-22-49.2-49.2-49.2S342.7,112.7,342.7,139.8z
	"/>
<path class="st4" d="M434.9,163.8c-18.4,11.5-46.2,9.3-60.8-4.7c-21.6-20.4-1.9-50.5,33.5-50.5c9.6-0.1,19.1,2.4,27.3,7.4
	C443.2,130.8,443.2,148.9,434.9,163.8z"/>
<path class="st12" d="M427.7,144.3c-2.5,0-4.5-2-4.5-4.5c0-13.4-17.2-13.4-17.9-13.4c-2.5,0-4.5-2-4.5-4.5s2-4.5,4.5-4.5
	c9.3,0,26.8,4.5,26.8,22.4C432.2,142.3,430.1,144.3,427.7,144.3z"/>
<path class="st11" d="M439.3,153.3c-1.1,3.7-2.6,7.3-4.5,10.6c-13.2,7.6-28.9,9.5-43.5,5.1c-22.8-6.9-32.5-26.4-22.4-42.1
	C383.2,143.4,406,159.1,439.3,153.3L439.3,153.3z"/>
<g>
	<path id="Shape_2_" class="st13" d="M-89.9,265c7.2,0,13,5.8,13,13c0,7.2-5.8,13-13,13h-156c-7.2,0-13-5.8-13-13
		c0-7.2,5.8-13,13-13l78-19.5L-89.9,265z"/>
	<path class="st14" d="M-89.9,265c0,0-19.5-65-19.5-123.5c0-45.5,32.5-52,32.5-91v-78c0-7.2-5.8-13-13-13h-156c-7.2,0-13,5.8-13,13
		v78c0,39,32.5,45.5,32.5,91c0,58.5-19.5,123.5-19.5,123.5H-89.9z"/>
	<path class="st13" d="M-76.9-27.5v82.8c-1.1-0.6-2.1-1.3-3.1-2.1c-5.5-5.2-14-5.2-19.5,0c-5.5,5.1-14,5.1-19.5,0
		c-5.5-5.2-14-5.2-19.5,0c-5.5,5.1-14,5.1-19.5,0c-5.5-5.2-14-5.2-19.5,0c-5.5,5.1-14,5.1-19.5,0c-5.5-5.1-14-5.1-19.5,0
		c-5.5,5-14,5-19.5,0c-5.5-5.2-14-5.2-19.5,0c-0.9,0.8-2,1.5-3.1,2.1c0-3.3,0,2.1,0-82.8c0-7.2,5.8-13,13-13h155.6
		C-82.8-40.5-76.9-34.7-76.9-27.5z"/>
	<path class="st15" d="M-204.1,49.7c-4.5-1-9.2,0.3-12.6,3.5c-3.3,3.1-8,4.4-12.4,3.5l-26.5-112.1c-0.2-1-1-1.8-1.9-2.2
		s-2-0.2-2.9,0.4l-56.1,39.3c-3,2.1-6.8,2.9-10.4,2.1c-3.6-0.8-6.7-3.1-8.5-6.3c-3.1-6.2-1-13.7,4.9-17.4l60.8-42.6
		c7-4,15.4-4.6,22.9-1.5c7.4,3.1,13,9.4,15.2,17.2L-204.1,49.7z"/>
	<path class="st16" d="M-204.1,49.7c-4.5-1-9.2,0.3-12.6,3.5c-3.3,3.1-8,4.4-12.4,3.5l-22.6-95.9c3.7-2,5.9-1.4,26.3-1.4
		L-204.1,49.7z"/>
	<circle id="Oval_1_" class="st17" cx="-193.9" cy="96" r="13"/>
	<circle class="st18" cx="-180.9" cy="213" r="26"/>
	<circle class="st19" cx="-180.9" cy="213" r="6.5"/>
	<circle class="st17" cx="-154.9" cy="141.5" r="19.5"/>
	<g>
		<circle class="st20" cx="-128.9" cy="200" r="6.5"/>
		<circle class="st20" cx="-128.9" cy="83" r="6.5"/>
		<circle class="st20" cx="-200.4" cy="154.5" r="6.5"/>
		<circle class="st20" cx="-135.4" cy="239" r="6.5"/>
	</g>
</g>
<path class="st21" d="M281.8,208.3c-2.5-4.1-3.7-7.9-3.7-11.6v-49.6c0-32.8-24.7-60-56.2-62c-16.8-1.1-32.9,4.6-45.2,16.1
	c-12.1,11.3-19,27.4-19,43.9v51.6c0,3.7-1.2,7.4-3.7,11.6c-2.7,4.5-3.4,9.9-1.9,15.2c1.8,6.3,7,11.4,13.4,13
	c6.8,1.7,13.8-0.3,18.6-5.3c0.5-0.6,1.2-0.8,1.9-0.8c0.9,0,1.9,0.4,2.6,1.1c7.2,7.2,19.8,7.2,26.9,0c1.4-1.4,3.4-1.4,4.7,0
	c7.2,7.2,19.7,7.2,26.9,0c0.7-0.7,1.6-1.1,2.6-1.1c0.7,0,1.4,0.3,1.9,0.8c3.7,3.8,8.6,5.9,13.7,5.9c1.6,0,3.2-0.2,4.8-0.6
	c6.4-1.6,11.7-6.7,13.4-13C285.2,218.2,284.5,212.8,281.8,208.3z"/>
<path class="st18" d="M216.7,125.1c14.5,0,26.3,11.8,26.3,26.3s-11.8,26.3-26.3,26.3s-26.3-11.8-26.3-26.3
	C190.5,136.9,202.3,125.1,216.7,125.1z"/>
<path class="st22" d="M227.6,143.9c4.8,0,8.8,3.9,8.8,8.8c0,4.8-3.9,8.8-8.8,8.8s-8.8-3.9-8.8-8.8
	C218.9,147.9,222.8,143.9,227.6,143.9z"/>
</svg>
