<?xml version="1.0" encoding="utf-8"?>
<!-- Generator: Adobe Illustrator 23.0.1, SVG Export Plug-In . SVG Version: 6.00 Build 0)  -->
<svg version="1.1" id="Layer_1" xmlns="http://www.w3.org/2000/svg" xmlns:xlink="http://www.w3.org/1999/xlink" x="0px" y="0px"
	 viewBox="0 0 467.4 467.4" style="enable-background:new 0 0 467.4 467.4;" xml:space="preserve">
<style type="text/css">
	.st0{opacity:0.9;fill:#CEB319;}
	.st1{fill:#3DB39E;}
	.st2{fill:#3A9987;}
	.st3{fill:#338E7D;}
	.st4{fill:none;}
	.st5{fill:#546E7A;}
	.st6{fill:#365A84;}
	.st7{fill:#8CA3AA;}
	.st8{fill:#FFFFFF;}
	.st9{fill:#324D5B;}
	.st10{fill:#C0CAD1;}
	.st11{fill:#ECEFF1;}
	.st12{fill:#448AFF;}
</style>
<path class="st0" d="M417.2,246.2c-8.6,13-22.1,26.9-41.8,39.5c-37.6,24.1-87.7,37.7-141.1,38s-103.6-12.9-141.4-36.8
	c-19.9-12.5-33.5-26.2-42.1-39.2l0,0c39.9,20.4,108.3,33.1,183.3,32.8C309.2,280.2,377.4,266.9,417.2,246.2L417.2,246.2z"/>
<path id="Shape" class="st1" d="M-116.7,215.9c-206.7-28.9-194.9-4.7-238,0c56.5,14.1-14.1,56.5-14.1,89.4s73,68.3,80.2,75.3
	c3.3,3.5-2.6,15.3-4.7,20.3c-0.4,1,0,2.2,0.9,2.8c0.9,0.6,2.1,0.5,2.9-0.2c4.9-4.7,14.8-17.8,14.8-27.6c0-18.8-51.8-32.9-51.8-65.9
	c0-21,27.7-28.8,52.2-42.4c7.4,7.4,13.7,15.9,13.7,23.5c0,18.8-4.7,18.8-4.7,42.4c0,12.4,13.7,21.6,25.9,23.5c0.9,0.1,1.7-0.3,2.1-1
	c0.4-0.8,0.3-1.7-0.2-2.3c-7-9.2-12.4-21.9-4.2-34.2c5.6-8.4,12.8-15.2,17.8-24.2c41.1,43,104.5,47.7,104.5,80.7
	c0,10.1-9.4,20.5-13.7,25.6c-0.5,0.5-0.5,1.3-0.2,1.9s1.1,0.9,1.8,0.8c18.6-2.4,32.2-18.9,31-37.7c0-44.8-131.8-68.9-83.6-137.3
	c2.3,20.7,14.9,43.2,46,43.2c22.1,0,32.9,15.5,37.9,24.9c0.5,1,1.7,1.5,2.8,1.2c1.1-0.3,1.8-1.4,1.7-2.5c-1-13.3-5.7-36.4-23.5-42.4
	C-143.3,245.6-128.8,227.2-116.7,215.9z M-179.7,223.5c-1.3,1.4-2.6,3.1-3.8,4.7C-182.3,226.6-181,224.9-179.7,223.5z"/>
<path class="st2" d="M-194.7,258.3c0-14.9,8.8-29.8,21.9-42.4h-120.7c18.8,0,36.7,15,42.4,32.9c28.2,89.4,131.8,84.7,131.8,127.1
	c0,10.1-9.4,20.5-13.7,25.6c-0.5,0.5-0.5,1.3-0.2,1.9s1.1,0.9,1.8,0.8c18.6-2.4,32.2-18.9,31-37.7
	C-100.6,328.9-194.7,305.4-194.7,258.3z"/>
<path class="st3" d="M-274.2,267.7c7.4,7.4,13.7,15.9,13.7,23.5c0,18.8-4.7,18.8-4.7,42.4c0,12.4,13.7,21.6,25.9,23.5
	c0.9,0.1,1.7-0.3,2.1-1c0.4-0.8,0.3-1.7-0.2-2.3c-7-9.2-12.4-21.9-4.2-34.2c5.6-8.4,12.8-15.2,17.8-24.2
	c-12.6-13.1-21.9-29-27.3-46.4l0.5,1.6C-257.6,257.4-265.5,263.3-274.2,267.7L-274.2,267.7z"/>
<line class="st4" x1="127.5" y1="284.9" x2="340.5" y2="284.9"/>
<path class="st5" d="M0,229.3c1.6,36,105.6,65,233.7,65s232-29,233.7-65c-32.6,14.2-124.9,24.5-233.7,24.5S32.6,243.5,0,229.3z"/>
<path class="st6" d="M374.9,175.9C374.7,98.1,311.6,35,233.7,35S92.7,98.1,92.5,175.9c0,0.1,0,0.1,0,0.2h282.3
	C374.9,176.1,374.9,176,374.9,175.9z"/>
<path class="st1" d="M233.7,58.8c55.5,0,101.2,42.6,106.1,96.9c0.1,0.7,0.1,1.3,0.2,2H127.4c0-0.7,0.1-1.3,0.2-2
	C132.5,101.5,178.2,58.8,233.7,58.8z"/>
<path class="st7" d="M374.9,175.9c0,0.1,0,0.1,0,0.2H92.5c0-0.1,0-0.1,0-0.2C36.3,188,0,207,0,228.4c0,0.3,0,0.6,0,0.9
	c32.6,14.2,124.9,24.5,233.7,24.5s201.1-10.3,233.7-24.5c0-0.3,0-0.6,0-0.9C467.4,207,431.1,188,374.9,175.9z"/>
<path class="st1" d="M291.8,157.7v-35.4c0-29-25.9-52.5-57.8-52.5s-57.8,23.5-57.8,52.5v35.4H291.8z"/>
<path class="st8" d="M233.6,99.8c14.5,0,26.3,11.8,26.3,26.3s-11.8,26.3-26.3,26.3s-26.3-11.8-26.3-26.3
	C207.4,111.6,219.2,99.8,233.6,99.8z"/>
<path class="st9" d="M233.6,117.3c4.8,0,8.8,3.9,8.8,8.8c0,4.8-3.9,8.8-8.8,8.8s-8.8-3.9-8.8-8.8
	C224.9,121.3,228.8,117.3,233.6,117.3z"/>
<path class="st10" d="M443.4,246.5c-9.9,6.5-25.4,13.4-48,19.7c-43.2,12-100.6,18.7-161.7,18.7S115.2,278.2,72,266.2
	c-22.7-6.3-38.2-13.2-48-19.7l0,0c45.6,10.3,123.8,16.8,209.7,16.8S397.8,256.8,443.4,246.5L443.4,246.5z"/>
<path class="st11" d="M233.7,244.3c-96.6,0-185.4-8.5-222.8-21c4.8-9.2,22.3-21.6,60.1-32.3c6.8-1.9,14-3.7,21.5-5.3l0,0h282.3l0,0
	c7.5,1.6,14.7,3.4,21.5,5.3c37.8,10.6,55.3,23.1,60.1,32.3C419.2,235.8,330.3,244.3,233.7,244.3z"/>
<polygon class="st12" points="32,31.4 0.5,62.9 0.5,-0.1 63.5,-0.1 "/>
</svg>
