<?xml version="1.0" encoding="utf-8"?>
<!-- Generator: Adobe Illustrator 23.0.1, SVG Export Plug-In . SVG Version: 6.00 Build 0)  -->
<svg version="1.1" id="Layer_1" xmlns="http://www.w3.org/2000/svg" xmlns:xlink="http://www.w3.org/1999/xlink" x="0px" y="0px"
	 viewBox="0 0 467.4 467.4" style="enable-background:new 0 0 467.4 467.4;" xml:space="preserve">
<style type="text/css">
	.st0{opacity:0.9;fill:#CEB319;}
	.st1{fill:#3DB39E;}
	.st2{fill:#3A9987;}
	.st3{fill:#338E7D;}
	.st4{fill:#95A5A5;}
	.st5{fill:#7F8C8D;}
	.st6{fill:#BDC3C7;}
	.st7{fill:none;}
	.st8{fill:#546E7A;}
	.st9{fill:#365A84;}
	.st10{fill:#8CA3AA;}
	.st11{fill:#FFFFFF;}
	.st12{fill:#324D5B;}
	.st13{fill:#C0CAD1;}
	.st14{fill:#ECEFF1;}
	.st15{fill:#448AFF;}
	.st16{fill:#3F5C6C;}
	.st17{fill:#35495E;}
	.st18{fill:#2C3E50;}
	.st19{fill:#2F6EC9;}
	.st20{fill:#A1C7FF;}
</style>
<path class="st0" d="M441.5,223.5c-10.9,11.2-26.8,22.2-48.5,30.9c-41.5,16.5-93.3,20.4-145.7,10.5c-52.4-9.9-99.2-32.4-131.9-63
	c-17.1-16.1-27.9-32.1-33.9-46.5l0,0c35.3,27.6,100,53.1,173.8,67C329,236.3,398.6,236.3,441.5,223.5L441.5,223.5z"/>
<g>
	<path id="Shape" class="st1" d="M680.2,1.4C564.9-27.2,572.2-10.1,548.6-8.7c31.7,12-6,38-4.9,60.5s42.6,49.8,46.8,54.9
		c1.9,2.5-0.9,10.3-1.9,13.7c-0.2,0.7,0.1,1.5,0.6,2c0.5,0.4,1.2,0.4,1.6,0c2.6-3,7.6-11.5,7.3-18.2c-0.6-12.9-29.7-24.7-30.8-47.3
		c-0.7-14.4,14.4-18.5,27.5-26.8c4.3,5.4,8.1,11.5,8.3,16.6c0.6,12.9-2,12.7-1.2,28.8c0.4,8.5,8.3,15.4,15.1,17.2
		c0.5,0.1,0.9-0.1,1.1-0.6c0.2-0.5,0.1-1.1-0.2-1.6c-4.2-6.6-7.6-15.5-3.4-23.6c2.8-5.5,6.6-9.8,9.1-15.8
		c24.1,31.1,59.3,37.1,60.4,59.6c0.3,6.9-4.5,13.6-6.7,16.9c-0.3,0.3-0.2,0.9,0,1.3c0.2,0.4,0.6,0.7,1,0.6
		c10.2-0.8,17.2-11.6,15.9-24.5c-1.5-30.6-75.1-52.7-50.7-97.4c1.9,14.2,9.6,30.2,26.8,31.5c12.2,0.9,18.7,12,21.8,18.6
		c0.3,0.7,1,1.1,1.6,0.9c0.6-0.2,0.9-0.9,0.9-1.6c-1-9.1-4.3-25.1-14.4-30C666.4,20.6,673.8,8.6,680.2,1.4z M645.6,3.9
		c-0.7,0.9-1.3,2-1.9,3.1C644.2,5.9,644.9,4.8,645.6,3.9z"/>
	<path class="st2" d="M638.4,27.1c-0.5-10.2,3.9-20,10.7-28.1l-66.7-5.1c10.4,0.8,20.8,11.8,24.5,24.3c18.5,62.3,75.6,63.5,77,92.5
		c0.3,6.9-4.5,13.6-6.7,16.9c-0.3,0.3-0.2,0.9,0,1.3s0.6,0.7,1,0.6c10.2-0.8,17.2-11.6,15.9-24.5C692.7,79.3,639.9,59.3,638.4,27.1z
		"/>
	<path class="st3" d="M594.8,30.1c4.3,5.4,8.1,11.5,8.3,16.6c0.6,12.9-2,12.7-1.2,28.8c0.4,8.5,8.3,15.4,15.1,17.2
		c0.5,0.1,0.9-0.1,1.1-0.6c0.2-0.5,0.1-1.1-0.2-1.6c-4.2-6.6-7.6-15.5-3.4-23.6c2.8-5.5,6.6-9.8,9.1-15.8
		c-7.4-9.5-13-20.8-16.6-32.9l0.3,1.1C603.6,23.8,599.4,27.5,594.8,30.1L594.8,30.1z"/>
</g>
<g>
	<path id="Shape_2_" class="st4" d="M561.6,376.7c-2.4-0.8-4-3.1-3.9-5.6c0.1-2.5,1.8-4.7,4.2-5.4l14-4c1.9-0.5,3.3-1.9,3.9-3.7
		l5.2-16c1-3,4.2-4.7,7.3-3.7c3,1,4.7,4.2,3.7,7.3l-5.2,16c-1.8,5.5-6.2,9.7-11.8,11.3C563.8,377.1,563.8,377.5,561.6,376.7
		L561.6,376.7z"/>
	<path class="st4" d="M544.1,344.7c-0.6-1.6-0.6-3.3,0.2-4.8c3.8-7.4,5.2-11.6,11.2-14.5c0.6-0.3-2.3,0.7,21.7-6.7
		c3-0.9,6.3,0.8,7.2,3.8c0.9,3-0.8,6.3-3.8,7.2l-20.2,6.2c-2.1,1.3-2.7,3.2-5.7,9.2c-1.3,2.6-4.3,3.8-7,2.9
		C546,347.5,544.7,346.3,544.1,344.7z"/>
	<circle id="Oval_1_" class="st5" cx="595.9" cy="327.3" r="17.3"/>
	<path class="st6" d="M607.3,240.2c23.2,8.7,29.5,17.2,24.6,32.2c-5.8,17.9-21,31-31.2,38.3c8.6,2.4,14,11,12.3,19.8
		c12.8-9,32.8-26.2,40.8-50.9c12.5-38.3-20.7-54.5-39.4-61.3C618,226.3,614.9,235.8,607.3,240.2L607.3,240.2z"/>
</g>
<g>
	<path class="st4" d="M-117.4,494.7c-2.2,1.2-3.9,0.6-17.8-0.9c-5.8-0.6-10.8-4.1-13.5-9.2l-7.8-15c-1.5-2.8-0.4-6.3,2.4-7.8
		s6.3-0.4,7.8,2.4l7.8,15c0.9,1.7,2.6,2.8,4.5,3l14.5,1.6c2.5,0.3,4.5,2.2,5,4.6C-114,491-115.1,493.5-117.4,494.7L-117.4,494.7z"/>
	<path class="st4" d="M-115.7,462.3c-4.6-6.3-5-7.3-7.2-8.1l-20.9-2.8c-2-0.3-3.8-1.6-4.6-3.5c-0.8-1.9-0.5-4.1,0.7-5.7
		c1.3-1.6,3.3-2.5,5.3-2.2c24.8,3.3,21.8,2.8,22.5,3c3.6,1.1,6.7,3.3,8.9,6.3l4.5,6.2c1,1.4,1.3,3.1,1,4.7c-0.4,1.6-1.5,3-3,3.8
		C-110.9,465.3-114,464.6-115.7,462.3z"/>
	<circle class="st5" cx="-159.4" cy="451.6" r="17.3"/>
	<path class="st6" d="M-185.1,367.6c-21.5,12.4-26.2,21.8-18.9,35.9c8.7,16.6,25.9,27.1,37.2,32.6c-8,3.9-11.7,13.1-8.7,21.4
		c-14.1-6.8-36.7-20.4-48.7-43.5c-18.7-35.7,11.4-57.3,28.4-66.8C-197.9,355.7-193.3,364.5-185.1,367.6L-185.1,367.6z"/>
</g>
<line class="st7" x1="164.1" y1="210.9" x2="346.9" y2="245.4"/>
<path class="st8" d="M63.7,142.4c-4.5,31.2,80.1,72.9,190.1,93.7s203.9,12.8,211.2-17.9c-30.3,6.9-111.2,0.8-204.6-16.9
	S89.3,159.9,63.7,142.4z"/>
<path class="st9" d="M394.2,157.4c12.5-66.8-31.5-131.2-98.3-143.9s-131.3,31.3-144.1,98c0,0.1,0,0.1,0,0.2L394,157.6
	C394.1,157.6,394.1,157.5,394.2,157.4z"/>
<path class="st1" d="M292,34c47.6,9,80,53,75.3,100.4c0,0.6-0.1,1.1-0.2,1.7l-182.5-34.5c0.1-0.6,0.3-1.1,0.5-1.7
	C198.2,54.2,244.3,25,292,34z"/>
<path class="st10" d="M394.2,157.4c0,0.1,0,0.1,0,0.2l-242.4-45.8c0-0.1,0-0.1,0-0.2c-50.2,1.3-84.5,11.7-87.9,30.1
	c0,0.3-0.1,0.5-0.1,0.8c25.7,17.5,103.2,41.3,196.6,59s174.3,23.8,204.6,16.9c0-0.3,0.1-0.5,0.1-0.8
	C468.5,199.2,440.4,177,394.2,157.4z"/>
<path class="st1" d="M325.8,128.3l5.7-30.4c4.7-24.9-13.7-49.3-41.1-54.4C263,38.3,237,54.3,232.3,79.2l-5.7,30.4L325.8,128.3z"/>
<path class="st11" d="M275.4,67.9c12.4,2.4,20.7,14.4,18.3,26.8s-14.4,20.7-26.8,18.3s-20.7-14.4-18.3-26.8
	C251,73.8,262.9,65.5,275.4,67.9z"/>
<path class="st12" d="M268.3,94.4c2.7,0.5,4.5,3.1,4,5.9c-0.5,2.7-3.1,4.5-5.9,4c-2.7-0.5-4.5-3.1-4-5.9
	C263,95.6,265.6,93.8,268.3,94.4z"/>
<path class="st13" d="M441.5,229.2c-9.6,4-24,7.4-44.4,9.1c-39,3.3-89.4-0.3-141.8-10.2s-100.6-25-135.8-42.3
	c-18.5-9.1-30.6-17.5-38-24.7l0,0c37.5,16.2,103.5,34.5,177.3,48.5S400.7,230.6,441.5,229.2L441.5,229.2z"/>
<path class="st14" d="M261.8,193.2c-82.9-15.7-157.8-37.4-187.8-54.2c5.6-7.1,22.6-14.9,56.8-18c6.1-0.5,12.6-0.9,19.3-1.1l0,0
	l242.3,45.8l0,0c6.2,2.6,12.1,5.3,17.6,8c30.7,15.2,43.7,28.8,46.3,37.5C422.5,216.1,344.8,208.9,261.8,193.2z"/>
<polygon class="st15" points="32,31.4 0.5,62.9 0.5,-0.1 63.5,-0.1 "/>
<g>
	<path id="Shape_1_" class="st16" d="M22.5,298c-3.1-5.9-1-13.2,4.8-16.5s13.1-1.3,16.6,4.3c10.3,16.2,26.4,27.9,44.9,33
		c1.9,0.5,3.8-0.1,5.2-1.4c1.4-1.3,2.2-3.1,1.9-5.1c0-0.4-1.9,0.3,85.4-19.2c0.1,1.4,0.2,3.1,0.3,5.1c5.2-1.9,11-0.2,14.4,4.2
		c9.3,11.1,22.5,18.3,36.8,20.3c5.9,0.5,10.8,5,11.6,10.9c0.5,3.7-0.7,7.6-3.3,10.2c-2.6,2.7-6.4,4.1-10.2,3.6
		c-15.7-1.7-30.5-8-42.6-18.1c4.2,12.9,11.3,24.8,20.7,34.8c14.2,14.2,22.7,33.1,23.9,53.2c0.2,4.7-1.5,9.4-4.9,12.6
		c-3.4,3.3-8,5.1-12.7,4.7c-8.4-0.7-15.1-7.5-15.4-16c-0.6-10.3-4.6-20.1-11.3-27.9l-16,8.3c4.2,9.2,6.7,19.1,7.3,29.3
		c0.2,4.7-1.5,9.4-4.9,12.6c-3.4,3.3-8,5.1-12.7,4.7c-8.3-0.6-14.9-7.3-15.2-15.7c-0.7-12-5.8-23.4-14.5-31.8
		c-14.1-14.9-24.4-32.8-30-52.5c-32.9-1.8-62.8-19.7-80.2-47.6L22.5,298z"/>
	<path class="st17" d="M162.3,404.5c-2.3,0.1-4.2-1.7-4.3-3.9s1.7-4.2,3.9-4.3c24.6-1.3,27.8-14.2,28-14.8c0.4-2.2,2.6-3.7,4.8-3.2
		c1.1,0.2,2.1,0.8,2.7,1.7c0.6,1,0.9,2.1,0.6,3.2c-0.3,0.8-4.3,19.8-35.9,21.4L162.3,404.5z"/>
	<path class="st17" d="M169,379.6c-1.1,0.1-2.2-0.3-3-1.2c-0.8-0.8-1.2-1.9-1.3-3c0.9-19.3-7.4-37.9-22.5-50c-1.7-1.5-2-4-0.6-5.7
		c0.7-0.8,1.7-1.4,2.8-1.5c1.1-0.1,2.2,0.2,3,0.9c17.1,13.7,26.5,34.8,25.4,56.7C172.8,377.8,171.1,379.4,169,379.6L169,379.6z"/>
	<path class="st17" d="M131.3,365c-0.1-2.3,1.7-4.2,3.9-4.3c30.2-1.6,41.5-13.1,41.7-13.3c1.6-1.6,4.1-1.8,5.7-0.3
		c0.8,0.7,1.3,1.7,1.4,2.8c0.1,1.1-0.3,2.1-1.1,2.9c-0.5,0.6-13.2,14.2-47.3,15.9C133.3,369,131.4,367.3,131.3,365z"/>
	<path class="st17" d="M210.2,314.8c4.5,2.8,9.3,4.9,14.3,6.3c-3.3,7.7-4.8,16-4.6,24.2c-5.3-1.3-10.3-3.2-15.2-5.5
		C205.1,331.3,206.9,322.9,210.2,314.8z"/>
	<path class="st17" d="M53.7,298.7c4,4,8.5,7.6,13.2,10.7c-3.3,7.7-8.6,14.3-15.5,19c-5-3.4-9.7-7.4-14-11.7
		C44.1,312.1,49.6,305.9,53.7,298.7z"/>
	<path class="st17" d="M146.7,425.9c10.1-5.4,22.1-6,32.8-1.7c0.1,1.3,0.1,2.8,0.2,4.1c0.2,4.7-1.5,9.4-4.9,12.6
		c-3.4,3.3-8,5.1-12.7,4.7c-8.3-0.6-14.9-7.3-15.2-15.7C146.7,425.4,146.3,426,146.7,425.9z"/>
	<path class="st17" d="M199.8,414.9c10.1-5.3,22.1-5.9,32.8-1.7c0.1,1.3,0.1,2.8,0.2,4.1c0.2,4.7-1.5,9.4-4.9,12.6
		c-3.4,3.3-8,5.1-12.7,4.7c-8.3-0.8-14.9-7.6-15.2-16c-0.1-1.2-0.2-2.5-0.4-3.7L199.8,414.9L199.8,414.9z"/>
	<path class="st17" d="M96,312.4c0-0.4-1.9,0.3,85.4-19.2c0.1,1.4,0.2,3.1,0.3,5.1c0.5-0.2,1.2-0.4,1.7-0.5
		c-7.3,16.6-22.2,28.9-40,32.8c-17.8,4-36.4-0.7-50.2-12.7C95.1,316.8,96.2,314.6,96,312.4z"/>
</g>
<g>
	<path class="st18" d="M165.8,221.1c-25-19.5-61.2-15.2-80.8,9.8s-15.2,61.2,9.8,80.8c25,19.5,61.2,15.2,80.8-9.8
		S190.7,240.7,165.8,221.1z"/>
	<path class="st15" d="M109.1,213c57.7,14.4,55,59.5,53.4,70.5c-0.3,1.6-0.4,2.5-0.4,2.5c-10.2,15.6-24.2,28.4-40.5,37.3
		c-20.1-3.1-37.1-16.8-44.6-35.7s-4.4-40.5,8.2-56.5C91.3,222.9,99.6,216.7,109.1,213z"/>
	<path class="st19" d="M79.5,239.6c18,45.8,53.6,50,82.8,44c-0.3,1.6-0.4,2.5-0.4,2.5c-10.2,15.6-24.2,28.4-40.5,37.3
		c-18.4-2.9-34.2-14.4-42.5-31C70.6,275.5,70.8,255.9,79.5,239.6L79.5,239.6z"/>
	<path class="st20" d="M102.5,302c-14.1-11-20.3-29.4-15.8-46.8c0.7-2.1,2.8-3.3,4.9-2.7c2.1,0.5,3.4,2.7,3,4.7
		c-3.7,14.2,1.5,29.2,13,38.2c1.8,1.4,2.1,4,0.7,5.7C106.9,303.1,104.2,303.4,102.5,302L102.5,302z"/>
	<circle id="Oval" class="st20" cx="98" cy="241.1" r="4.1"/>
</g>
</svg>
