<svg id="tel" xmlns="http://www.w3.org/2000/svg" viewBox="0 0 512 512">
<path d="M451.3,354.7c-2.2-1.7-4.5-3.5-6.7-5.2c-11.4-9.2-23.5-17.6-35.3-25.8c-2.4-1.7-4.9-3.4-7.3-5.1
	c-15-10.6-28.6-15.7-41.3-15.7c-17.2,0-32.2,9.5-44.6,28.2c-5.5,8.3-12.1,12.3-20.3,12.3c-4.8,0-10.4-1.4-16.4-4.1
	c-48.5-22-83.2-55.7-103-100.3c-9.6-21.5-6.5-35.6,10.4-47c9.6-6.5,27.4-18.6,26.1-41.8C211.5,124,153.5,44.9,129,35.9
	c-10.4-3.8-21.2-3.8-32.4-0.1c-28.1,9.5-48.3,26-58.3,48c-9.7,21.2-9.3,46.1,1.3,72C70.1,230.7,113,296,167,349.8
	c52.9,52.7,118,95.9,193.4,128.4c6.8,2.9,13.9,4.5,19.1,5.7c1.8,0.4,3.3,0.7,4.4,1c0.6,0.2,1.2,0.3,1.9,0.3l0.6,0c0,0,0,0,0,0
	c35.5,0,78-32.4,91.1-69.3C489,383.6,468.1,367.6,451.3,354.7z" fill="currentColor"/>
</svg>
