<svg xmlns="http://www.w3.org/2000/svg" viewBox="0 0 511.999 511.999"><path d="M165.323 267.452L395.89 125.446c4.144-2.545 8.407 3.058 4.849 6.359L210.454 308.684a39.448 39.448 0 0 0-12.225 23.602l-6.482 48.036c-.858 6.414-9.868 7.05-11.638.843L155.18 293.57c-2.855-9.992 1.306-20.663 10.143-26.118z" fill="#c3c3c7"/><path d="M9.043 246.86l117.975 44.032 45.664 146.854c2.922 9.405 14.423 12.882 22.057 6.641l65.761-53.61a19.618 19.618 0 0 1 23.916-.667l118.61 86.113c8.166 5.936 19.736 1.461 21.784-8.407l86.888-417.947c2.236-10.779-8.356-19.772-18.62-15.802L8.905 220.845c-11.948 4.608-11.844 21.524.138 26.015zm156.28 20.592L395.89 125.446c4.144-2.545 8.407 3.058 4.849 6.359L210.454 308.684a39.448 39.448 0 0 0-12.225 23.602l-6.482 48.036c-.858 6.414-9.868 7.05-11.638.843L155.18 293.57c-2.855-9.992 1.306-20.663 10.143-26.118z" fill="#fff"/></svg>